<svg xmlns="http://www.w3.org/2000/svg" version="1.1" xmlns:xlink="http://www.w3.org/1999/xlink" width="24" height="25"><svg width="24" height="25" viewBox="0 0 24 25" fill="none" xmlns="http://www.w3.org/2000/svg">
<path d="M11.7833 0.100068C11.9062 -0.0114202 12.0158 -0.0286281 12.1502 0.0428386C12.3559 0.149227 12.5905 0.668772 12.7934 1.45961C13.6312 4.74136 13.9402 12.4208 13.4798 18.5669C13.3282 20.6163 13.0876 22.3512 12.8045 23.4803C12.5786 24.3836 12.3641 24.8468 12.1153 24.9668C12.0239 25.0097 12.0013 25.0094 11.9186 24.9752C11.5812 24.8352 11.286 24.0782 11.0229 22.6777C10.7913 21.457 10.6261 20.0357 10.4802 17.9947C10.2715 15.0847 10.2715 9.97694 10.4802 7.00386C10.5431 6.11196 10.5907 5.53888 10.6937 4.55836C10.8395 3.15796 11.1202 1.63774 11.3689 0.885922C11.4803 0.551918 11.6575 0.214869 11.7833 0.100068Z" fill="white"></path>
<path d="M8.05128 1.25721C8.24002 0.848425 8.44118 0.733743 8.64422 0.913839C9.19897 1.39982 9.67873 4.35882 9.87892 8.5323C10.122 13.6318 9.85587 19.5376 9.24971 22.425C9.03526 23.4512 8.78143 24.0613 8.52982 24.1587C8.04084 24.3445 7.56329 22.6145 7.26303 19.5817C6.61677 13.0298 7.0276 3.48732 8.05128 1.25721Z" fill="white"></path>
<path d="M15.4037 0.859401C15.4952 0.805087 15.633 0.82263 15.7246 0.902672C16.0619 1.18581 16.4192 2.60929 16.6537 4.61559C16.9197 6.8768 17.043 9.36456 17.043 12.5062C17.043 15.4335 16.9397 17.701 16.7109 19.8679C16.4393 22.4456 16.0416 23.9998 15.6185 24.1489C15.2468 24.2775 14.9029 23.4321 14.6112 21.6685C14.0136 18.0381 13.8595 11.4088 14.2541 6.41761C14.4371 4.15105 14.7207 2.36422 15.0437 1.47217C15.1381 1.21493 15.315 0.910919 15.4037 0.859401Z" fill="white"></path>
<path d="M18.5665 2.32642C18.6637 2.24638 18.6561 2.24705 18.7562 2.29851C19.1562 2.50966 19.5275 4.6527 19.7133 7.80367C19.8076 9.40737 19.8277 10.2336 19.8277 12.5062C19.8305 14.7814 19.8105 15.5304 19.7133 17.1795C19.5159 20.5784 19.1101 22.7265 18.6697 22.7265C18.5896 22.7265 18.4359 22.5194 18.353 22.305C17.6382 20.4578 17.2994 13.3238 17.6596 7.54684C17.8369 4.68007 18.1891 2.64425 18.5665 2.32642Z" fill="white"></path>
<path d="M5.22054 2.31805C5.31203 2.2466 5.30058 2.24709 5.39773 2.29851C5.80093 2.50719 6.1731 4.63341 6.35898 7.80367C6.45619 9.42436 6.47338 10.1791 6.47338 12.4769C6.47338 14.7836 6.45332 15.6247 6.35898 17.1795C6.22743 19.3921 6.01636 21.0766 5.76186 21.9714C5.66463 22.3087 5.49781 22.6429 5.39773 22.6972C5.3267 22.7341 5.31523 22.7343 5.24147 22.6805C4.90977 22.4432 4.60596 21.0194 4.40578 18.7526C4.03977 14.6363 4.08844 8.68756 4.52018 5.10274C4.70884 3.52252 4.96043 2.52156 5.22054 2.31805Z" fill="white"></path>
<path d="M21.3498 4.89336C21.4154 4.79378 21.4804 4.82816 21.566 5.00503C21.8891 5.67109 22.1324 8.93845 22.1324 12.6347C22.1324 16.2566 21.9071 19.4128 21.5897 20.2475C21.1579 21.3881 20.7346 17.6547 20.7317 12.6779C20.7317 8.72439 20.9923 5.43937 21.3498 4.89336Z" fill="white"></path>
<path d="M2.49304 4.88778C2.55864 4.81653 2.57823 4.81667 2.64093 4.88499C3.04698 5.33378 3.31907 9.38417 3.25618 14.0207C3.20757 17.4597 2.93596 20.2018 2.6214 20.4248C2.56146 20.4676 2.55584 20.4641 2.49583 20.3955C1.96123 19.7793 1.68428 12.5747 2.0159 7.90417C2.14173 6.15753 2.31003 5.08503 2.49304 4.88778Z" fill="white"></path>
<path d="M23.2932 10.0328C23.4019 8.86976 23.5686 8.42394 23.7173 8.88405C23.8603 9.33 23.9537 10.2968 23.988 11.7204C24.0337 13.5155 23.9461 15.3796 23.7745 16.1857C23.6287 16.8913 23.4426 16.6282 23.3225 15.5366C23.1624 14.113 23.1502 11.5422 23.2932 10.0328Z" fill="white"></path>
<path d="M0.245471 9.0334C0.319792 8.71336 0.422121 8.62994 0.502177 8.82403C0.690898 9.27566 0.802115 10.6935 0.802132 12.6486C0.802132 14.2549 0.73705 15.3816 0.599837 16.0991C0.453998 16.8624 0.279423 16.697 0.145021 15.665C-0.0865805 13.8929 -0.0318239 10.2374 0.245471 9.0334Z" fill="white"></path>
</svg><style>@media (prefers-color-scheme: light) { :root { filter: contrast(1) brightness(0.1); } }
@media (prefers-color-scheme: dark) { :root { filter: none; } }
</style></svg>