<svg width="116" height="25" viewBox="0 0 116 25" fill="none" xmlns="http://www.w3.org/2000/svg">
<path d="M11.7833 0.100068C11.9062 -0.0114202 12.0158 -0.0286281 12.1502 0.0428386C12.3559 0.149227 12.5905 0.668772 12.7934 1.45961C13.6312 4.74136 13.9402 12.4208 13.4798 18.5669C13.3282 20.6163 13.0876 22.3512 12.8045 23.4803C12.5786 24.3836 12.3641 24.8468 12.1153 24.9668C12.0239 25.0097 12.0013 25.0094 11.9186 24.9752C11.5812 24.8352 11.286 24.0782 11.0229 22.6777C10.7913 21.457 10.6261 20.0357 10.4802 17.9947C10.2715 15.0847 10.2715 9.97694 10.4802 7.00386C10.5431 6.11196 10.5907 5.53888 10.6937 4.55836C10.8395 3.15796 11.1202 1.63774 11.3689 0.885922C11.4803 0.551918 11.6575 0.214869 11.7833 0.100068Z" fill="white"/>
<path d="M8.05128 1.25721C8.24002 0.848425 8.44118 0.733743 8.64422 0.913839C9.19897 1.39982 9.67874 4.35882 9.87892 8.5323C10.122 13.6318 9.85587 19.5376 9.24971 22.425C9.03526 23.4512 8.78143 24.0613 8.52982 24.1587C8.04084 24.3445 7.56329 22.6145 7.26303 19.5817C6.61677 13.0298 7.0276 3.48732 8.05128 1.25721Z" fill="white"/>
<path d="M15.4037 0.859401C15.4952 0.805087 15.633 0.82263 15.7246 0.902672C16.0619 1.18582 16.4192 2.60929 16.6537 4.61559C16.9197 6.8768 17.043 9.36456 17.043 12.5062C17.043 15.4335 16.9397 17.701 16.7109 19.8679C16.4393 22.4456 16.0416 23.9998 15.6185 24.1489C15.2468 24.2775 14.9029 23.4321 14.6112 21.6685C14.0136 18.0381 13.8595 11.4088 14.2541 6.41761C14.4371 4.15105 14.7207 2.36422 15.0437 1.47217C15.1381 1.21493 15.315 0.910919 15.4037 0.859401Z" fill="white"/>
<path d="M18.5665 2.32642C18.6637 2.24638 18.6561 2.24705 18.7562 2.29851C19.1562 2.50966 19.5275 4.6527 19.7133 7.80367C19.8076 9.40737 19.8277 10.2336 19.8277 12.5062C19.8305 14.7814 19.8105 15.5304 19.7133 17.1795C19.5159 20.5784 19.1101 22.7265 18.6697 22.7265C18.5896 22.7265 18.4359 22.5194 18.353 22.305C17.6382 20.4578 17.2994 13.3238 17.6596 7.54684C17.8369 4.68007 18.1891 2.64425 18.5665 2.32642Z" fill="white"/>
<path d="M5.22054 2.31805C5.31203 2.2466 5.30058 2.24709 5.39773 2.29851C5.80093 2.50719 6.1731 4.63341 6.35898 7.80367C6.45619 9.42436 6.47338 10.1791 6.47338 12.4769C6.47338 14.7836 6.45332 15.6247 6.35898 17.1795C6.22743 19.3921 6.01636 21.0766 5.76186 21.9714C5.66463 22.3087 5.49781 22.6429 5.39773 22.6972C5.3267 22.7341 5.31523 22.7343 5.24147 22.6805C4.90977 22.4432 4.60596 21.0194 4.40578 18.7526C4.03977 14.6363 4.08844 8.68756 4.52018 5.10274C4.70884 3.52252 4.96043 2.52156 5.22054 2.31805Z" fill="white"/>
<path d="M21.3498 4.89336C21.4154 4.79378 21.4804 4.82816 21.566 5.00503C21.8891 5.67109 22.1324 8.93845 22.1324 12.6347C22.1324 16.2566 21.9071 19.4128 21.5897 20.2475C21.1579 21.3881 20.7346 17.6547 20.7317 12.6779C20.7317 8.72439 20.9923 5.43937 21.3498 4.89336Z" fill="white"/>
<path d="M2.49304 4.88778C2.55864 4.81653 2.57823 4.81667 2.64093 4.88499C3.04698 5.33378 3.31907 9.38417 3.25618 14.0207C3.20757 17.4597 2.93596 20.2018 2.6214 20.4248C2.56146 20.4676 2.55584 20.4641 2.49583 20.3955C1.96123 19.7793 1.68428 12.5747 2.0159 7.90417C2.14173 6.15753 2.31003 5.08503 2.49304 4.88778Z" fill="white"/>
<path d="M23.2932 10.0328C23.4019 8.86976 23.5686 8.42394 23.7173 8.88405C23.8603 9.33 23.9537 10.2968 23.988 11.7204C24.0337 13.5155 23.9461 15.3796 23.7745 16.1857C23.6287 16.8913 23.4426 16.6282 23.3225 15.5366C23.1624 14.113 23.1502 11.5422 23.2932 10.0328Z" fill="white"/>
<path d="M0.245471 9.0334C0.319792 8.71336 0.422121 8.62994 0.502177 8.82403C0.690898 9.27566 0.802115 10.6935 0.802132 12.6486C0.802132 14.2549 0.73705 15.3816 0.599837 16.0991C0.453998 16.8624 0.279423 16.697 0.145021 15.665C-0.0865805 13.8929 -0.0318239 10.2374 0.245471 9.0334Z" fill="white"/>
<path d="M31.1004 6.53962V16.2836H36.8604V17.7396H29.3884V6.53962H31.1004ZM43.747 9.48362H45.363V17.7396H43.811L43.747 15.3076H43.651C43.539 16.1236 43.203 16.7796 42.659 17.2596C42.115 17.7556 41.443 17.9956 40.675 17.9956C40.099 17.9956 39.571 17.8836 39.123 17.6276C38.675 17.3716 38.323 17.0196 38.067 16.5556C37.811 16.0916 37.683 15.5476 37.683 14.9236V9.48362H39.299V14.4116C39.299 15.0996 39.475 15.6436 39.859 16.0276C40.227 16.4116 40.739 16.6036 41.395 16.6036C42.099 16.6036 42.659 16.3476 43.091 15.8356C43.523 15.3236 43.747 14.6196 43.747 13.7556V9.48362ZM53.3758 9.61162C53.8238 9.86762 54.1918 10.2196 54.4478 10.6836C54.7038 11.1476 54.8318 11.6916 54.8318 12.2996V17.7396H53.2158V12.8116C53.2158 12.1396 53.0238 11.6116 52.6398 11.2116C52.2558 10.8276 51.7598 10.6196 51.1198 10.6196C50.3998 10.6196 49.8238 10.8916 49.4078 11.4036C48.9918 11.9156 48.7838 12.6036 48.7838 13.4676V17.7396H47.1518V9.48362H48.7038L48.7838 11.9156H48.8798C48.9758 11.1156 49.3118 10.4596 49.8558 9.96362C50.3998 9.48362 51.0558 9.22762 51.8398 9.22762C52.4158 9.22762 52.9278 9.35562 53.3758 9.61162ZM56.9885 13.9476C57.5325 13.5316 58.3645 13.3236 59.4525 13.3236C60.1725 13.3396 60.7325 13.3236 61.1485 13.2596C61.5645 13.2116 61.8685 13.0996 62.0765 12.9076C62.2845 12.7316 62.3965 12.4596 62.3965 12.0916C62.3965 11.6916 62.2205 11.3396 61.8685 11.0196C61.5165 10.6996 60.9565 10.5396 60.2205 10.5396C59.4685 10.5396 58.8925 10.7476 58.4925 11.1476C58.0925 11.5636 57.8685 12.0756 57.8045 12.6836H56.1885C56.1885 12.0596 56.3645 11.4836 56.6845 10.9556C57.0045 10.4276 57.4685 10.0116 58.0765 9.69162C58.6845 9.38762 59.4045 9.22762 60.2365 9.22762C61.5165 9.22762 62.4765 9.53162 63.0845 10.1236C63.6925 10.7156 63.9965 11.4836 63.9965 12.4116V17.7396H62.4605L62.3965 15.0516H62.3165C62.2045 16.0436 61.8365 16.7956 61.2125 17.2756C60.5885 17.7556 59.8365 17.9956 58.9725 17.9956C58.1085 17.9956 57.4365 17.8036 56.9245 17.4036C56.4125 17.0196 56.1565 16.4436 56.1565 15.7076C56.1565 14.9556 56.4285 14.3636 56.9885 13.9476ZM58.2365 16.4596C58.4925 16.6836 58.9085 16.7796 59.4525 16.7796C60.0125 16.7796 60.5245 16.6516 60.9725 16.3956C61.4205 16.1396 61.7565 15.8036 62.0125 15.3876C62.2685 14.9876 62.3965 14.5716 62.3965 14.1236V12.8756H62.3165C62.2525 13.2116 62.1405 13.4676 61.9485 13.6596C61.7565 13.8516 61.4685 14.0116 61.0525 14.1076C60.6365 14.2036 60.0285 14.2676 59.2605 14.2996C58.8125 14.3316 58.4765 14.4436 58.2205 14.6676C57.9645 14.8916 57.8365 15.1796 57.8365 15.5316C57.8365 15.9316 57.9645 16.2356 58.2365 16.4596ZM67.4724 12.6196C67.6004 11.8196 67.7924 11.1956 68.0644 10.7156C68.3204 10.2356 68.6884 9.89962 69.1524 9.67562C69.6004 9.46762 70.2084 9.35562 70.9444 9.35562V10.7636C70.0804 10.8276 69.3924 10.9876 68.8804 11.2596C68.3684 11.5316 67.9844 11.9316 67.7604 12.4756C67.5364 13.0196 67.4084 13.7396 67.4084 14.6356V17.7396H65.7924V9.48362H67.3444L67.4084 12.6196H67.4724ZM78.0417 11.7396C78.9697 11.7876 79.7217 12.0756 80.2657 12.5876C80.8097 13.0996 81.0977 13.7556 81.0977 14.5396C81.0977 15.5316 80.7617 16.2996 80.0897 16.8756C79.4177 17.4516 78.5057 17.7396 77.3697 17.7396H72.1697V6.53962H77.5297C78.5217 6.53962 79.3217 6.77962 79.9137 7.25962C80.5057 7.73962 80.8097 8.36362 80.8097 9.16362C80.8097 9.88362 80.5537 10.4596 80.0577 10.9076C79.5457 11.3556 78.8737 11.5956 78.0417 11.6276V11.7396ZM73.8817 7.99562V11.3716H76.7297C77.4337 11.3716 78.0097 11.2116 78.4257 10.8756C78.8417 10.5556 79.0657 10.1076 79.0657 9.56362C79.0657 9.08362 78.8897 8.71562 78.5697 8.42762C78.2337 8.13962 77.7857 7.99562 77.2257 7.99562H73.8817ZM77.2737 16.2836C77.8977 16.2836 78.3937 16.1236 78.7777 15.8036C79.1617 15.4836 79.3537 15.0676 79.3537 14.5236C79.3537 13.9956 79.1297 13.5636 78.6817 13.2436C78.2337 12.9236 77.6577 12.7636 76.9217 12.7636H73.8817V16.2836H77.2737ZM82.8167 13.9476C83.3607 13.5316 84.1927 13.3236 85.2807 13.3236C86.0007 13.3396 86.5607 13.3236 86.9767 13.2596C87.3927 13.2116 87.6967 13.0996 87.9047 12.9076C88.1127 12.7316 88.2247 12.4596 88.2247 12.0916C88.2247 11.6916 88.0487 11.3396 87.6967 11.0196C87.3447 10.6996 86.7847 10.5396 86.0487 10.5396C85.2967 10.5396 84.7207 10.7476 84.3207 11.1476C83.9207 11.5636 83.6967 12.0756 83.6327 12.6836H82.0167C82.0167 12.0596 82.1927 11.4836 82.5127 10.9556C82.8327 10.4276 83.2967 10.0116 83.9047 9.69162C84.5127 9.38762 85.2327 9.22762 86.0647 9.22762C87.3447 9.22762 88.3047 9.53162 88.9127 10.1236C89.5207 10.7156 89.8247 11.4836 89.8247 12.4116V17.7396H88.2887L88.2247 15.0516H88.1447C88.0327 16.0436 87.6647 16.7956 87.0407 17.2756C86.4167 17.7556 85.6647 17.9956 84.8007 17.9956C83.9367 17.9956 83.2647 17.8036 82.7527 17.4036C82.2407 17.0196 81.9847 16.4436 81.9847 15.7076C81.9847 14.9556 82.2567 14.3636 82.8167 13.9476ZM84.0647 16.4596C84.3207 16.6836 84.7367 16.7796 85.2807 16.7796C85.8407 16.7796 86.3527 16.6516 86.8007 16.3956C87.2487 16.1396 87.5847 15.8036 87.8407 15.3876C88.0967 14.9876 88.2247 14.5716 88.2247 14.1236V12.8756H88.1447C88.0807 13.2116 87.9687 13.4676 87.7767 13.6596C87.5847 13.8516 87.2967 14.0116 86.8807 14.1076C86.4647 14.2036 85.8567 14.2676 85.0887 14.2996C84.6407 14.3316 84.3047 14.4436 84.0487 14.6676C83.7927 14.8916 83.6647 15.1796 83.6647 15.5316C83.6647 15.9316 83.7927 16.2356 84.0647 16.4596ZM92.1638 17.2436C91.4918 16.7316 91.1238 16.0116 91.0758 15.0836H92.7078C92.7398 15.6276 92.9638 16.0276 93.3638 16.2996C93.7478 16.5876 94.3078 16.7156 95.0278 16.7156C95.6198 16.7156 96.0838 16.6196 96.4358 16.3956C96.7718 16.1876 96.9478 15.8996 96.9478 15.5156C96.9478 15.2436 96.8518 15.0196 96.6918 14.8596C96.5158 14.6996 96.2278 14.5876 95.8118 14.4916L93.5558 13.9796C92.8358 13.8196 92.2758 13.5636 91.8758 13.1796C91.4758 12.7956 91.2838 12.3156 91.2838 11.7236C91.2838 10.9716 91.5878 10.3636 92.2278 9.91562C92.8518 9.46762 93.6998 9.22762 94.7718 9.22762C95.9238 9.22762 96.8198 9.49962 97.4918 10.0116C98.1478 10.5236 98.4838 11.2436 98.4838 12.1396H96.8838C96.8838 11.6276 96.6918 11.2276 96.3238 10.9396C95.9558 10.6516 95.4438 10.5076 94.8038 10.5076C94.1958 10.5076 93.7318 10.6196 93.3958 10.8276C93.0438 11.0356 92.8838 11.3236 92.8838 11.6756C92.8838 11.9316 92.9798 12.1396 93.1718 12.3316C93.3638 12.5236 93.6518 12.6516 94.0038 12.7156L96.2758 13.2276C97.0758 13.4196 97.6518 13.6756 98.0198 14.0276C98.3878 14.3796 98.5798 14.8436 98.5798 15.4516C98.5798 16.2516 98.2598 16.8756 97.6198 17.3236C96.9798 17.7716 96.1158 17.9956 95.0118 17.9956C93.7958 17.9956 92.8358 17.7556 92.1638 17.2436ZM107.677 13.8996H101.117C101.117 14.7796 101.373 15.4676 101.853 15.9476C102.333 16.4436 102.973 16.6836 103.741 16.6836C104.349 16.6836 104.845 16.5236 105.261 16.1716C105.677 15.8356 105.933 15.4036 106.061 14.8596H107.597C107.517 15.4996 107.293 16.0436 106.941 16.5236C106.573 17.0036 106.109 17.3556 105.549 17.6116C104.989 17.8676 104.381 17.9956 103.741 17.9956C102.445 17.9956 101.421 17.6276 100.669 16.8596C99.9014 16.1076 99.5334 15.0196 99.5334 13.5796C99.5334 12.6836 99.6934 11.9156 100.045 11.2596C100.381 10.6036 100.861 10.1076 101.501 9.75562C102.125 9.40362 102.845 9.22762 103.677 9.22762C104.461 9.22762 105.165 9.41962 105.773 9.77162C106.381 10.1236 106.845 10.6196 107.181 11.2276C107.501 11.8356 107.677 12.5236 107.677 13.2756V13.8996ZM101.869 11.1636C101.421 11.5796 101.165 12.1556 101.117 12.8916H106.061C105.997 12.1716 105.757 11.5956 105.325 11.1796C104.893 10.7636 104.317 10.5396 103.613 10.5396C102.909 10.5396 102.317 10.7476 101.869 11.1636Z" fill="white"/>
</svg>